<svg xmlns="http://www.w3.org/2000/svg" viewBox="0 0 500 253.03302">
  <g style="fill:#3a506b" transform="translate(-12.748554 -138.54904) scale(1.051)">
    <circle cx="42.959999" cy="341.53" r="30.83" class="a" style="fill:#3a506b"/>
    <path d="M135.15 132h11.38v209a31.35 31.35 0 0 1-31.35 31.35H103.8v-209A31.35 31.35 0 0 1 135.15 132Z" class="a" style="fill:#3a506b"/>
    <path d="m186.3201 137.80519 9.85537-5.75599 109.27 191.45596a31.35 31.71355 0 0 1-11.44892 43.30634l-9.88135 5.77116-109.285-191.48224a31.35 31.71355 0 0 1 11.4899-43.29523z" class="a" style="fill:#3a506b;stroke-width:1.00578"/>
    <circle cx="457.04001" cy="162.86" r="30.83" class="a" style="fill:#3a506b"/>
    <path d="m307.64433 137.58248 9.85537-5.75599 109.27 191.45596a31.35 31.71355 0 0 1-11.44892 43.30634l-9.88135 5.77116-109.285-191.48224a31.35 31.71355 0 0 1 11.4899-43.29523z" class="a" style="fill:#3a506b;stroke-width:1.00578"/>
  </g>
</svg>
